<svg version="1.0" xmlns="http://www.w3.org/2000/svg"
    width="1085.000000pt" height="1280.000000pt" viewBox="0 0 1085.000000 1280.000000"
    preserveAspectRatio="xMidYMid meet">
    <metadata> Created by potrace 1.15, written by Peter Selinger 2001-2017 </metadata>
    <g transform="translate(0.000000,1280.000000) scale(0.100000,-0.100000)"
        fill="#000000" stroke="none">
        <path
            d="M7202 12790 c-347 -36 -672 -151 -952 -334 -290 -190 -576 -503 -752
-824 -22 -39 -44 -69 -49 -66 -5 3 -20 26 -33 52 -41 81 -179 283 -258 377
-147 176 -314 327 -483 437 -262 171 -561 282 -900 334 -172 27 -596 27 -780
0 -933 -133 -1591 -691 -1858 -1576 -174 -574 -127 -1174 139 -1796 464 -1086
1513 -2238 3449 -3785 506 -404 724 -571 737 -563 34 21 402 294 615 456 566
431 1061 844 1513 1264 230 214 667 655 831 839 847 950 1306 1777 1436 2590
26 159 25 567 0 720 -144 855 -688 1471 -1541 1744 -270 86 -538 130 -831 136
-110 2 -237 0 -283 -5z" />
        <path
            d="M575 9147 c-47 -22 -96 -76 -127 -143 -18 -39 -50 -158 -89 -330
-101 -453 -154 -769 -244 -1459 -25 -192 -57 -431 -70 -530 -56 -424 -59 -827
-10 -1385 47 -525 163 -1209 251 -1479 65 -199 192 -438 335 -627 150 -200
323 -362 739 -694 486 -387 667 -568 865 -865 183 -274 267 -482 400 -978 86
-326 113 -392 188 -474 22 -25 59 -54 80 -64 46 -24 223 -71 357 -95 116 -22
412 -25 510 -6 279 55 489 170 711 391 131 131 204 228 215 288 12 62 -15 137
-125 355 -117 230 -165 342 -206 483 -40 138 -53 255 -64 570 -14 402 -43 560
-137 748 -73 145 -192 278 -334 372 -36 23 -150 89 -255 145 -567 306 -752
443 -1097 810 -206 219 -350 414 -559 755 -247 404 -320 507 -454 640 -130
131 -267 220 -380 250 -117 30 -188 15 -256 -54 -58 -60 -79 -119 -86 -236
-17 -299 182 -742 528 -1169 82 -101 204 -276 192 -276 -23 0 -130 85 -224
179 -294 295 -543 701 -635 1036 -34 122 -43 302 -20 399 19 81 61 163 117
232 54 64 96 149 113 226 9 39 16 157 20 313 6 267 23 450 81 840 80 539 100
792 92 1190 -5 306 -11 344 -68 456 -35 71 -107 146 -164 174 -50 24 -150 30
-190 12z" />
        <path
            d="M10082 9129 c-70 -35 -120 -88 -163 -172 -61 -120 -64 -145 -64 -557
0 -425 5 -485 85 -1055 68 -480 80 -599 89 -905 10 -330 20 -368 143 -524 53
-67 85 -132 104 -213 23 -96 14 -277 -20 -398 -92 -335 -341 -741 -635 -1036
-94 -94 -201 -179 -224 -179 -12 0 110 175 192 276 150 186 278 383 370 569
225 457 212 831 -32 896 -132 36 -337 -61 -527 -250 -134 -134 -204 -231 -415
-576 -273 -447 -417 -639 -683 -909 -320 -324 -457 -421 -1052 -746 -272 -148
-367 -221 -469 -359 -155 -211 -205 -408 -222 -886 -11 -315 -24 -432 -64
-570 -41 -140 -88 -252 -206 -485 -119 -235 -141 -301 -121 -367 18 -60 66
-125 180 -244 237 -247 482 -380 784 -425 195 -29 444 -7 696 61 117 31 158
52 209 108 75 82 102 148 188 474 133 496 217 704 400 978 197 295 365 464
844 848 344 276 449 367 577 500 184 190 305 364 420 602 108 222 162 424 244
908 114 680 163 1380 130 1857 -14 191 -149 1227 -210 1610 -65 401 -185 952
-228 1044 -70 149 -184 193 -320 125z" />
        <path
            d="M1252 8373 c-37 -7 -98 -75 -116 -130 -25 -74 -124 -983 -171 -1563
-9 -107 -23 -233 -31 -279 -17 -98 -18 -216 -4 -258 22 -62 107 -62 154 0 13
18 71 169 129 337 58 168 173 499 255 735 82 237 154 454 161 483 18 84 14
238 -9 326 -56 219 -223 378 -368 349z" />
        <path
            d="M9499 8366 c-125 -44 -230 -179 -274 -351 -19 -72 -21 -232 -5 -312
10 -49 123 -380 475 -1391 57 -164 77 -196 134 -212 42 -11 76 6 91 46 14 37
12 145 -5 249 -7 50 -23 203 -35 340 -46 554 -141 1422 -164 1497 -19 65 -52
107 -100 129 -48 22 -68 23 -117 5z" />
        <path
            d="M1845 7636 c-33 -14 -86 -70 -109 -115 -63 -120 -262 -649 -402
-1065 -86 -257 -104 -319 -104 -369 0 -76 25 -131 85 -186 108 -100 170 -32
395 433 188 388 338 731 365 832 50 193 -18 418 -142 470 -39 17 -50 17 -88 0z" />
        <path
            d="M8903 7629 c-45 -22 -80 -66 -114 -144 -28 -63 -38 -220 -19 -303 31
-142 439 -1024 559 -1209 47 -74 94 -113 132 -113 38 0 110 65 138 125 36 77
29 132 -45 359 -132 399 -327 924 -424 1141 -33 74 -83 133 -127 151 -43 18
-51 18 -100 -7z" />
        <path
            d="M2139 6856 c-47 -32 -96 -98 -216 -291 -246 -395 -350 -631 -360
-822 -5 -80 -3 -97 16 -136 15 -31 33 -50 57 -62 53 -25 77 -14 118 54 20 33
91 135 158 228 336 466 448 676 448 843 0 159 -116 257 -221 186z" />
        <path
            d="M8560 6849 c-43 -44 -61 -84 -67 -149 -15 -166 86 -371 405 -817 93
-131 184 -262 202 -291 37 -60 63 -71 114 -47 112 53 100 267 -32 560 -78 173
-291 536 -394 671 -81 107 -166 134 -228 73z" />
    </g>
</svg>